<svg width="916" height="900" xmlns="http://www.w3.org/2000/svg" fill="currentColor">

 <g>
  <title>Layer 1</title>
  <path fill="#2b7fff" id="svg_1" d="m392,49l23,0l26,2l30,4l26,5l23,6l34,12l21,9l23,13l13,8l18,13l13,10l11,10l8,7l21,21l9,11l12,15l14,20l12,21l8,16l13,27l11,30l6,20l8,38l4,29l3,34l0,34l-4,45l-5,28l-7,32l-11,33l-14,34l-16,32l-10,16l-14,20l-13,16l-9,11l-30,30l-8,7l-11,9l-18,13l-21,12l-21,11l-20,8l-27,9l-24,6l-27,5l-24,3l-25,2l-14,0l-16,-1l2,-3l19,-7l10,-3l30,-13l17,-8l18,-10l24,-16l17,-13l14,-11l16,-15l13,-12l14,-15l9,-11l12,-15l12,-17l13,-20l10,-18l8,-15l13,-30l9,-27l7,-26l5,-26l2,-12l4,-45l0,-27l-4,-44l-5,-28l-7,-28l-7,-20l-14,-34l-14,-27l-15,-24l-12,-17l-10,-13l-9,-11l-9,-10l-7,-7l-7,-8l-7,-7l-8,-7l-7,-7l-11,-9l-12,-10l-18,-13l-21,-13l-26,-14l-26,-11l-28,-10l-16,-6l1,-3z"/>
  <path fill="#2b7fff" id="svg_2" d="m500,142l3,1l5,17l3,18l3,30l1,22l2,10l7,13l13,12l14,10l39,26l8,9l-1,5l-9,10l-12,10l-4,5l1,4l7,8l7,10l4,8l-2,5l-11,10l1,7l10,9l2,4l-1,4l-6,8l-8,9l-1,9l6,17l0,19l-5,10l-9,8l-12,6l-21,7l-26,5l-24,4l-15,4l-19,7l-14,9l-11,9l-9,11l-8,13l-9,19l-10,34l-5,24l-3,24l-1,18l0,17l1,24l4,40l4,27l1,7l-4,-2l-16,-16l-7,-8l-12,-14l-11,-14l-12,-15l-13,-18l-9,-13l-11,-19l-9,-17l-8,-16l-12,-32l-7,-27l-5,-27l-1,-8l0,-26l2,-21l5,-23l6,-16l8,-16l12,-17l11,-13l7,-7l0,3l-11,17l-8,16l-5,12l-5,19l-3,19l0,20l4,30l6,29l8,26l9,27l12,25l9,17l5,5l-4,-59l0,-32l4,-43l6,-32l8,-29l11,-32l12,-29l10,-22l12,-22l12,-21l16,-26l14,-19l9,-12l13,-16l14,-19l9,-15l8,-16l6,-16l6,-21l4,-21l4,-22l1,-12z"/>
  <path fill="#2b7fff" id="svg_3" d="m467,145l2,0l-1,9l-12,36l-11,26l-16,27l-13,18l-13,15l-12,13l-11,11l-8,7l-11,10l-11,9l-9,8l-10,8l-17,14l-14,12l-13,11l-14,12l-7,7l-8,7l-16,15l-10,9l-7,8l-14,15l-9,11l-10,11l-8,11l-14,19l-11,17l-8,13l-14,28l-9,24l-7,27l-4,24l-1,21l1,34l4,29l6,27l-4,0l-8,-10l-13,-18l-10,-19l-6,-18l-3,-15l-2,-17l0,-11l3,-21l6,-22l9,-21l11,-21l13,-19l12,-17l11,-14l13,-16l12,-14l13,-15l12,-13l7,-8l9,-9l7,-8l18,-18l8,-7l9,-9l8,-7l28,-24l11,-9l16,-13l14,-12l12,-11l8,-7l24,-24l7,-8l14,-17l13,-17l13,-18l13,-20l12,-20l9,-16l8,-16l3,-4z" opacity="0.8"/>
 </g>
</svg>